<svg xmlns="http://www.w3.org/2000/svg" viewBox="0 0 1440 320"><path fill="#273036" fill-opacity="0.98" d="M0,0L0,128L75.8,128L75.8,64L151.6,64L151.6,96L227.4,96L227.4,128L303.2,128L303.2,64L378.9,64L378.9,224L454.7,224L454.7,256L530.5,256L530.5,96L606.3,96L606.3,96L682.1,96L682.1,96L757.9,96L757.9,256L833.7,256L833.7,96L909.5,96L909.5,224L985.3,224L985.3,96L1061.1,96L1061.1,160L1136.8,160L1136.8,96L1212.6,96L1212.6,320L1288.4,320L1288.4,192L1364.2,192L1364.2,160L1440,160L1440,320L1364.2,320L1364.2,320L1288.4,320L1288.4,320L1212.6,320L1212.6,320L1136.8,320L1136.8,320L1061.1,320L1061.1,320L985.3,320L985.3,320L909.5,320L909.5,320L833.7,320L833.7,320L757.9,320L757.9,320L682.1,320L682.1,320L606.3,320L606.3,320L530.5,320L530.5,320L454.7,320L454.7,320L378.9,320L378.9,320L303.2,320L303.2,320L227.4,320L227.4,320L151.6,320L151.6,320L75.8,320L75.8,320L0,320L0,320Z"></path></svg>